<?xml version="1.0" encoding="UTF-8" standalone="no"?>
<svg
   xmlns:dc="http://purl.org/dc/elements/1.1/"
   xmlns:cc="http://creativecommons.org/ns#"
   xmlns:rdf="http://www.w3.org/1999/02/22-rdf-syntax-ns#"
   xmlns:svg="http://www.w3.org/2000/svg"
   xmlns="http://www.w3.org/2000/svg"
   xmlns:xlink="http://www.w3.org/1999/xlink"
   xmlns:sodipodi="http://sodipodi.sourceforge.net/DTD/sodipodi-0.dtd"
   xmlns:inkscape="http://www.inkscape.org/namespaces/inkscape"
   id="Layer_1"
   version="1.1"
   viewBox="0 0 140 140"
   xml:space="preserve"
   sodipodi:docname="iconfinder_Rocket_701485.svg"
   width="137.3"
   height="139.3"
   inkscape:export-filename="C:\Users\Markus\Downloads\icon-512.png"
   inkscape:export-xdpi="378.53906"
   inkscape:export-ydpi="378.53906"
   inkscape:version="0.92.0 r15299"><metadata
     id="metadata4521"><rdf:RDF><cc:Work
         rdf:about=""><dc:format>image/svg+xml</dc:format><dc:type
           rdf:resource="http://purl.org/dc/dcmitype/StillImage" /></cc:Work></rdf:RDF></metadata><defs
     id="defs4519" /><sodipodi:namedview
     pagecolor="#ffffff"
     bordercolor="#666666"
     borderopacity="1"
     objecttolerance="10"
     gridtolerance="10"
     guidetolerance="10"
     inkscape:pageopacity="0"
     inkscape:pageshadow="2"
     inkscape:window-width="2560"
     inkscape:window-height="1377"
     id="namedview4517"
     showgrid="false"
     inkscape:zoom="6.1319811"
     inkscape:cx="71.483798"
     inkscape:cy="64.634691"
     inkscape:window-x="-8"
     inkscape:window-y="-8"
     inkscape:window-maximized="1"
     inkscape:current-layer="Layer_1" /><style
     type="text/css"
     id="style4485">
	.st0{opacity:0.7;fill:#D3D3D3;}
	.st1{fill:#EDEDEF;}
	.st2{fill:#2C8AAA;}
	.st3{opacity:0.19;clip-path:url(#XMLID_40_);fill:#070808;}
	.st4{fill:#22728E;}
	.st5{fill:#215C6D;}
	.st6{fill:#33A0DA;}
	.st7{fill:#2995C4;}
	.st8{fill:#FFFFFF;}
	.st9{fill:#D1EBFA;}
</style><g
     id="XMLID_33_"
     transform="translate(1.6628638)"><g
       id="XMLID_154_"><path
         class="st0"
         d="m 63.3,87.2 c 0,-1.4 -1.1,-2.5 -2.5,-2.5 -1.4,0 -2.5,1.1 -2.5,2.5 0,1.4 2.5,16.9 2.5,16.9 0,0 2.5,-15.5 2.5,-16.9 z"
         id="XMLID_157_"
         inkscape:connector-curvature="0"
         style="opacity:0.7;fill:#d3d3d3" /><path
         class="st0"
         d="m 71,102.6 c 0,-1.4 -1.1,-2.5 -2.5,-2.5 -1.4,0 -2.5,1.1 -2.5,2.5 0,1.4 2.5,16.9 2.5,16.9 0,0 2.5,-15.5 2.5,-16.9 z"
         id="XMLID_156_"
         inkscape:connector-curvature="0"
         style="opacity:0.7;fill:#d3d3d3" /><path
         class="st0"
         d="m 79.1,89.7 c 0,-1.4 -1.1,-2.5 -2.5,-2.5 -1.4,0 -2.5,1.1 -2.5,2.5 0,1.4 2.5,16.9 2.5,16.9 0,0 2.5,-15.5 2.5,-16.9 z"
         id="XMLID_155_"
         inkscape:connector-curvature="0"
         style="opacity:0.7;fill:#d3d3d3" /></g><rect
       class="st1"
       height="6.5999999"
       id="XMLID_153_"
       width="20.1"
       x="58.599998"
       y="76.599998"
       style="fill:#ededef" /><circle
       class="st2"
       cx="68.5"
       cy="69.599998"
       id="XMLID_151_"
       r="66.199997"
       style="fill:#2c8aaa" /><g
       id="XMLID_148_"><defs
         id="defs4494"><circle
           cx="68.699997"
           cy="69.599998"
           id="XMLID_149_"
           r="66.199997" /></defs><clipPath
         id="XMLID_40_"><use
           style="overflow:visible"
           xlink:href="#XMLID_149_"
           id="use4496"
           x="0"
           y="0"
           width="100%"
           height="100%" /></clipPath><polygon
         class="st3"
         id="XMLID_150_"
         points="96.7,36.9 134.8,74.1 134,135.8 89.2,133.9 44.1,89.6 "
         clip-path="url(#XMLID_40_)"
         style="opacity:0.18999999;fill:#070808" /></g><g
       id="XMLID_134_"><path
         class="st4"
         d="m 53.9,79.8 c 6.6,6.6 8.1,16.3 4.6,24.3 2.4,-1.1 4.7,-2.6 6.7,-4.6 8.6,-8.6 8.6,-22.4 0,-31 -8.6,-8.6 -22.4,-8.6 -31,0 -2,2 -3.5,4.3 -4.6,6.7 8.1,-3.5 17.8,-1.9 24.3,4.6 z"
         id="XMLID_147_"
         inkscape:connector-curvature="0"
         style="fill:#22728e" /><path
         class="st5"
         d="M 68.6,73 57.4,84.3 c 3.5,6.1 3.9,13.5 1.1,19.8 2.4,-1.1 4.7,-2.6 6.7,-4.6 7.2,-7.2 8.3,-18.1 3.4,-26.5 z"
         id="XMLID_146_"
         inkscape:connector-curvature="0"
         style="fill:#215c6d" /><path
         class="st6"
         d="m 51.9,81.8 c 1.9,1.9 3.4,4 4.6,6.3 7.7,-2.6 16,-7.8 23.3,-15.1 11.6,-11.6 17.7,-25.5 17,-36.1 -10.6,-0.8 -24.5,5.4 -36.1,17 -7.3,7.3 -12.4,15.5 -15.1,23.3 2.3,1.2 4.4,2.7 6.3,4.6 z"
         id="XMLID_145_"
         inkscape:connector-curvature="0"
         style="fill:#33a0da" /><path
         class="st7"
         d="m 96.8,37 c 0,0 -0.1,0 -0.1,0 L 51.9,81.8 c 0,0 0,0 0.1,0.1 1.9,1.9 3.4,4 4.6,6.3 7.7,-2.6 16,-7.8 23.3,-15.1 C 91.4,61.5 97.6,47.6 96.8,37 Z"
         id="XMLID_144_"
         inkscape:connector-curvature="0"
         style="fill:#2995c4" /><path
         class="st4"
         d="m 85.8,47.9 c 2.4,2.4 4.7,4.8 6.8,7.3 3.1,-6.5 4.5,-12.8 4.2,-18.3 -5.5,-0.3 -11.8,1.1 -18.3,4.2 2.5,2.2 4.9,4.4 7.3,6.8 z"
         id="XMLID_143_"
         inkscape:connector-curvature="0"
         style="fill:#22728e" /><path
         class="st5"
         d="m 96.7,36.9 -10.9,11 c 0,0 0,0 0.1,0.1 2.4,2.4 4.7,4.8 6.8,7.3 3.1,-6.5 4.5,-12.8 4.2,-18.3 -0.1,-0.1 -0.2,-0.1 -0.2,-0.1 z"
         id="XMLID_142_"
         inkscape:connector-curvature="0"
         style="fill:#215c6d" /><path
         class="st4"
         d="m 66.1,67.6 c -3.3,0.8 -8.3,4.2 -13.1,9 -4.8,4.8 -8.2,9.8 -9,13.1 3.3,-0.8 8.3,-4.2 13.1,-9 4.9,-4.8 8.2,-9.8 9,-13.1 z"
         id="XMLID_141_"
         inkscape:connector-curvature="0"
         style="fill:#22728e" /><path
         class="st5"
         d="M 66,67.7 44.1,89.6 c 0,0.1 0,0.1 0,0.2 3.3,-0.8 8.3,-4.2 13.1,-9 C 62,76 65.4,71 66.2,67.7 66.1,67.6 66,67.6 66,67.7 Z"
         id="XMLID_140_"
         inkscape:connector-curvature="0"
         style="fill:#215c6d" /><path
         class="st4"
         d="m 70.2,63.5 c -3,-3 -3,-7.8 0,-10.8 3,-3 7.8,-3 10.8,0 3,3 3,7.8 0,10.8 -3,3 -7.8,3 -10.8,0 z"
         id="XMLID_139_"
         inkscape:connector-curvature="0"
         style="fill:#22728e" /><path
         class="st8"
         d="m 79.4,54.4 c -2.1,-2.1 -5.4,-2.1 -7.5,0 -2.1,2.1 -2.1,5.4 0,7.5 2.1,2.1 5.4,2.1 7.5,0 2,-2.1 2,-5.4 0,-7.5 z"
         id="XMLID_138_"
         inkscape:connector-curvature="0"
         style="fill:#ffffff" /><g
         id="XMLID_135_"><path
           class="st5"
           d="m 81,52.8 c 0,-0.1 0,-0.1 0,0 l -1.7,1.6 c 0,0 0,0 0.1,0.1 2.1,2.1 2.1,5.4 0,7.5 -2.1,2.1 -5.4,2.1 -7.5,0 0,0 0,0 -0.1,-0.1 l -1.6,1.6 c 0,0 0,0 0.1,0.1 3,3 7.8,3 10.8,0 C 84,60.5 84,55.7 81,52.8 Z"
           id="XMLID_137_"
           inkscape:connector-curvature="0"
           style="fill:#215c6d" /><path
           class="st9"
           d="m 79.4,61.9 c 2.1,-2.1 2.1,-5.4 0,-7.5 0,0 0,0 -0.1,-0.1 l -7.5,7.5 c 0,0 0,0 0.1,0.1 2,2 5.4,2 7.5,0 z"
           id="XMLID_136_"
           inkscape:connector-curvature="0"
           style="fill:#d1ebfa" /></g></g></g></svg>
